<svg width="147" height="24" viewBox="0 0 147 24" fill="none" xmlns="http://www.w3.org/2000/svg">
<path d="M13.5905 5.33337L6.66738 12.2565L13.5905 19.1795" stroke="#EA5E40" stroke-width="4.16667" stroke-linecap="round" stroke-linejoin="round"/>
<path d="M26.504 18V6.8H31.112C32.104 6.8 32.952 6.96 33.656 7.28C34.3707 7.6 34.92 8.05867 35.304 8.656C35.688 9.25333 35.88 9.96267 35.88 10.784C35.88 11.6053 35.688 12.3147 35.304 12.912C34.92 13.4987 34.3707 13.952 33.656 14.272C32.952 14.5813 32.104 14.736 31.112 14.736H27.656L28.584 13.792V18H26.504ZM33.832 18L31 13.936H33.224L36.072 18H33.832ZM28.584 14.016L27.656 13.024H31.016C31.9333 13.024 32.6213 12.8267 33.08 12.432C33.5493 12.0373 33.784 11.488 33.784 10.784C33.784 10.0693 33.5493 9.52 33.08 9.136C32.6213 8.752 31.9333 8.56 31.016 8.56H27.656L28.584 7.536V14.016ZM42.0311 18.112C41.0818 18.112 40.2498 17.9253 39.5351 17.552C38.8311 17.168 38.2818 16.6453 37.8871 15.984C37.5031 15.3227 37.3111 14.5707 37.3111 13.728C37.3111 12.8747 37.4978 12.1227 37.8711 11.472C38.2551 10.8107 38.7778 10.2933 39.4391 9.92C40.1111 9.54667 40.8738 9.36 41.7271 9.36C42.5591 9.36 43.3005 9.54133 43.9511 9.904C44.6018 10.2667 45.1138 10.7787 45.4871 11.44C45.8605 12.1013 46.0471 12.88 46.0471 13.776C46.0471 13.8613 46.0418 13.9573 46.0311 14.064C46.0311 14.1707 46.0258 14.272 46.0151 14.368H38.8951V13.04H44.9591L44.1751 13.456C44.1858 12.9653 44.0845 12.5333 43.8711 12.16C43.6578 11.7867 43.3645 11.4933 42.9911 11.28C42.6285 11.0667 42.2071 10.96 41.7271 10.96C41.2365 10.96 40.8045 11.0667 40.4311 11.28C40.0685 11.4933 39.7805 11.792 39.5671 12.176C39.3645 12.5493 39.2631 12.992 39.2631 13.504V13.824C39.2631 14.336 39.3805 14.7893 39.6151 15.184C39.8498 15.5787 40.1805 15.8827 40.6071 16.096C41.0338 16.3093 41.5245 16.416 42.0791 16.416C42.5591 16.416 42.9911 16.3413 43.3751 16.192C43.7591 16.0427 44.1005 15.808 44.3991 15.488L45.4711 16.72C45.0871 17.168 44.6018 17.5147 44.0151 17.76C43.4391 17.9947 42.7778 18.112 42.0311 18.112ZM51.1843 18.112C50.2456 18.112 49.5203 17.872 49.0082 17.392C48.4963 16.9013 48.2403 16.1813 48.2403 15.232V7.568H50.2403V15.184C50.2403 15.5893 50.3416 15.904 50.5443 16.128C50.7576 16.352 51.0509 16.464 51.4243 16.464C51.8723 16.464 52.2456 16.3467 52.5443 16.112L53.1043 17.536C52.8696 17.728 52.5816 17.872 52.2403 17.968C51.8989 18.064 51.5469 18.112 51.1843 18.112ZM46.8323 11.12V9.52H52.5283V11.12H46.8323ZM58.3083 18.112C57.4336 18.112 56.6549 17.9253 55.9723 17.552C55.2896 17.168 54.7509 16.6453 54.3563 15.984C53.9616 15.3227 53.7643 14.5707 53.7643 13.728C53.7643 12.8747 53.9616 12.1227 54.3563 11.472C54.7509 10.8107 55.2896 10.2933 55.9723 9.92C56.6549 9.54667 57.4336 9.36 58.3083 9.36C59.1936 9.36 59.9776 9.54667 60.6603 9.92C61.3536 10.2933 61.8923 10.8053 62.2763 11.456C62.6709 12.1067 62.8683 12.864 62.8683 13.728C62.8683 14.5707 62.6709 15.3227 62.2763 15.984C61.8923 16.6453 61.3536 17.168 60.6603 17.552C59.9776 17.9253 59.1936 18.112 58.3083 18.112ZM58.3083 16.4C58.7989 16.4 59.2363 16.2933 59.6203 16.08C60.0043 15.8667 60.3029 15.5573 60.5163 15.152C60.7403 14.7467 60.8523 14.272 60.8523 13.728C60.8523 13.1733 60.7403 12.6987 60.5163 12.304C60.3029 11.8987 60.0043 11.5893 59.6203 11.376C59.2363 11.1627 58.8043 11.056 58.3243 11.056C57.8336 11.056 57.3963 11.1627 57.0123 11.376C56.6389 11.5893 56.3403 11.8987 56.1163 12.304C55.8923 12.6987 55.7803 13.1733 55.7803 13.728C55.7803 14.272 55.8923 14.7467 56.1163 15.152C56.3403 15.5573 56.6389 15.8667 57.0123 16.08C57.3963 16.2933 57.8283 16.4 58.3083 16.4ZM68.3968 18.112C67.6714 18.112 67.0314 17.9787 66.4768 17.712C65.9221 17.4347 65.4901 17.0187 65.1808 16.464C64.8714 15.8987 64.7168 15.1893 64.7168 14.336V9.456H66.7168V14.064C66.7168 14.832 66.8874 15.408 67.2288 15.792C67.5808 16.1653 68.0768 16.352 68.7168 16.352C69.1861 16.352 69.5914 16.256 69.9328 16.064C70.2848 15.872 70.5568 15.584 70.7488 15.2C70.9514 14.816 71.0528 14.3413 71.0528 13.776V9.456H73.0528V18H71.1488V15.696L71.4848 16.4C71.1968 16.9547 70.7754 17.3813 70.2208 17.68C69.6661 17.968 69.0581 18.112 68.3968 18.112ZM75.6714 18V9.456H77.5754V11.808L77.3514 11.12C77.6074 10.544 78.0074 10.1067 78.5514 9.808C79.106 9.50933 79.794 9.36 80.6154 9.36V11.264C80.53 11.2427 80.45 11.232 80.3754 11.232C80.3007 11.2213 80.226 11.216 80.1514 11.216C79.394 11.216 78.7914 11.44 78.3434 11.888C77.8954 12.3253 77.6714 12.9813 77.6714 13.856V18H75.6714Z" fill="#EA5E40"/>
</svg>
