<svg width="251" height="250" viewBox="0 0 251 250" fill="none" xmlns="http://www.w3.org/2000/svg">
<g clip-path="url(#clip0_19_532)">
<path opacity="0.17" d="M140.951 243.667C158.105 243.667 172.011 238.468 172.011 232.053C172.011 225.639 158.105 220.439 140.951 220.439C123.797 220.439 109.891 225.639 109.891 232.053C109.891 238.468 123.797 243.667 140.951 243.667Z" fill="#782820" stroke="#782820" stroke-miterlimit="10"/>
<path opacity="0.17" d="M182.639 235.668C182.639 242.085 168.73 247.282 151.579 247.282C134.428 247.282 120.52 242.078 120.52 235.668C120.52 229.258 126.894 220.641 144.045 220.641C161.196 220.641 182.639 229.251 182.639 235.668Z" fill="#782820" stroke="#782820" stroke-miterlimit="10"/>
<path opacity="0.17" d="M192.235 238.354C192.235 244.771 178.326 249.968 161.175 249.968C144.024 249.968 130.115 244.764 130.115 238.354C130.115 231.937 126.893 220.648 144.044 220.648C161.195 220.648 192.235 231.937 192.235 238.354Z" fill="#782820" stroke="#782820" stroke-miterlimit="10"/>
<path d="M141.678 218.467C141.678 218.467 169.152 222.749 190.609 234.577L141.678 218.467Z" fill="#782820"/>
<path d="M141.678 218.467C141.678 218.467 169.152 222.749 190.609 234.577" stroke="#782820" stroke-miterlimit="10"/>
<path opacity="0.28" d="M15.0752 145.436C-22.8321 74.2146 52.3146 114.974 88.3933 107.96C107.152 104.313 116.295 86.38 139.088 88.5082C156.368 90.1172 172.586 93.8025 187.007 99.0385C206.382 106.078 206.875 116.304 218.047 127.736C229.842 139.797 251.753 153.247 250.436 167.379C248.011 193.442 217.567 191.379 179.174 199.281C162.314 202.753 146.259 226.162 126.43 224.313C94.508 221.335 66.2364 211.304 46.1415 197.413C25.3333 183.035 23.3945 161.066 15.0752 145.436Z" fill="#005266"/>
<path d="M178.995 162.364C179.456 162.377 179.955 162.28 180.37 162.429C181.388 162.766 181.933 162.39 182.257 161.456C182.374 161.112 182.568 160.781 182.756 160.469C183.282 159.613 184.047 159.321 185.039 159.529C186.446 159.834 187.775 160.456 189.241 160.554C189.305 161.034 188.981 161.365 188.761 161.728C187.347 164.083 186.005 166.491 184.591 168.852C183.8 170.182 184.047 170.74 185.538 171.084C186.848 171.389 187.989 171.013 188.975 170.15C189.753 169.469 190.343 168.632 190.959 167.821C191.38 167.269 191.782 167.152 192.347 167.632C193.203 168.372 194.221 168.852 195.329 169.066C196.004 169.196 196.529 169.559 197.015 169.994C198.714 171.48 200.484 172.888 202.138 174.426C202.767 174.958 203.461 175.425 203.934 176.125C203.999 176.229 204.051 176.333 204.116 176.437C204.537 177.585 203.928 178.889 202.806 179.292C202.397 179.441 202.08 179.285 201.794 179.032C201.353 178.649 200.88 178.299 200.439 177.91C200.199 177.702 199.907 177.507 199.622 177.806C199.376 178.072 199.609 178.312 199.778 178.533C200.368 179.324 200.329 179.551 199.447 180.434C198.675 181.212 198.429 181.238 197.625 180.674C197.242 180.408 196.918 180.07 196.542 179.804C196.334 179.655 196.107 179.525 195.868 179.733C195.667 179.908 195.757 180.116 195.816 180.33C196.069 181.193 195.615 182.095 194.571 182.808C193.825 183.321 193.001 183.308 192.275 182.769C191.802 181.361 191.575 181.199 190.071 181.336C189.558 181.381 189.442 181.128 189.357 180.719C189.046 179.324 188.404 178.967 187.101 179.493C186.582 179.7 186.336 179.688 186.193 179.071C185.875 177.696 185.298 177.404 183.898 177.877C183.476 178.02 183.236 178.014 183.042 177.54C182.413 175.989 181.66 175.782 180.299 176.735C180.195 176.807 180.091 176.859 179.955 176.833C179.099 176.164 178.107 176.567 177.186 176.463C176.804 175.957 177.141 175.431 177.147 174.912C177.549 171.091 178.029 167.282 178.522 163.467C178.548 163.065 178.496 162.591 178.995 162.364Z" fill="#F9B68E"/>
<path d="M202.06 174.607C200.205 173.037 198.338 171.479 196.509 169.87C196.133 169.539 195.731 169.384 195.283 169.293C194.071 169.059 192.988 168.547 192.1 167.703C191.685 167.314 191.516 167.496 191.25 167.84C190.641 168.618 190.044 169.403 189.357 170.11C188.073 171.44 186.517 171.752 184.785 171.116C183.929 170.805 183.605 170.156 184.046 169.384C185.739 166.412 187.392 163.421 189.24 160.547C189.83 159.853 190.654 159.697 191.484 159.612C193.539 159.411 195.595 159.236 197.65 159.042C198.357 158.977 198.999 159.126 199.602 159.47C200.594 160.028 201.619 160.534 202.578 161.163C203.46 161.741 204.349 161.968 205.367 161.643C205.808 161.994 205.795 162.519 205.853 162.993C206.223 165.867 206.54 168.761 206.91 171.635C206.955 171.972 206.994 172.316 206.858 172.634C206.566 173.075 206.073 173.14 205.632 173.14C204.394 173.14 203.356 173.575 202.462 174.399C202.351 174.509 202.209 174.561 202.06 174.607Z" fill="#F18F5C"/>
<path d="M178.993 162.364C178.611 164.161 178.494 165.997 178.254 167.814C177.936 170.201 177.645 172.596 177.333 174.99C176.808 175.82 176.017 176.222 175.07 176.158C173.125 176.021 171.193 175.768 169.26 175.483C169.014 175.444 168.781 175.36 168.605 175.165C169.273 169.76 169.948 164.349 170.609 158.944C170.745 157.796 170.953 157.621 172.094 157.776C173.378 157.952 174.662 158.133 175.952 158.263C178.41 158.51 179.13 159.327 178.98 161.806C178.98 161.994 178.993 162.175 178.993 162.364Z" fill="#EA7B40"/>
<path d="M179.941 176.839C180.388 176.106 181.043 175.743 181.892 175.937C182.872 176.158 183.261 176.898 183.332 177.838C185.394 176.956 186.321 177.436 186.496 179.506C187.21 179.136 187.897 178.74 188.733 179.181C189.557 179.616 189.648 180.349 189.609 181.147C191.625 180.817 192.345 181.245 192.397 182.763C192.533 182.977 192.637 183.23 192.507 183.451C191.989 184.327 191.554 185.293 190.53 185.735C190.03 186.344 189.375 186.429 188.688 186.176C187.981 185.916 187.592 185.371 187.566 184.625C187.553 184.197 187.488 184.035 186.983 184.132C185.783 184.366 184.985 183.808 184.81 182.607C184.739 182.127 184.648 181.991 184.136 182.056C182.898 182.218 182.256 181.692 182.016 180.427C181.977 180.213 182.158 179.778 181.633 179.915C180.732 180.148 179.96 179.993 179.493 179.117C179.007 178.247 179.37 177.514 179.941 176.839Z" fill="#F18F5C"/>
<path d="M190.523 185.735C191.236 184.8 192.267 184.061 192.39 182.757C193.739 183.243 195.347 182.445 195.827 181.063C195.937 180.739 195.691 180.622 195.548 180.44C195.276 180.09 195.302 179.766 195.613 179.454C195.924 179.136 196.248 179.266 196.534 179.467C197.001 179.817 197.468 180.174 197.883 180.583C198.291 180.979 198.615 180.966 198.972 180.551C199.199 180.291 199.458 180.071 199.679 179.817C199.99 179.448 200.217 179.117 199.627 178.721C199.238 178.461 198.868 178.033 199.413 177.501C199.919 177.015 200.243 177.41 200.593 177.689C200.904 177.942 201.19 178.228 201.527 178.442C201.922 178.695 202.11 179.487 202.785 179.045C203.459 178.604 204.101 178.098 204.101 177.164C204.101 176.917 204.101 176.671 204.101 176.424C204.347 176.612 204.6 176.787 204.834 176.982C205.806 177.787 205.988 178.429 205.495 179.285C204.886 180.343 203.887 180.804 202.856 180.382C202.396 180.194 202.13 180.246 201.838 180.616C201.553 180.979 201.209 181.297 200.904 181.641C200.347 182.283 199.575 182.452 198.881 182.147C198.161 181.829 197.895 182.173 197.539 182.627C196.741 183.652 195.866 184.515 194.413 183.769C194.154 183.633 194.005 183.782 193.856 183.944C193.687 184.126 193.499 184.288 193.363 184.495C192.695 185.54 191.748 185.955 190.523 185.735Z" fill="#E19166"/>
<path d="M168.614 175.165C170.312 175.354 172.037 175.438 173.704 175.762C175.078 176.028 176.246 175.847 177.335 174.99C177.277 175.483 177.225 175.976 177.173 176.47C176.583 177.962 175.746 178.507 174.164 178.345C172.588 178.182 171.032 177.962 169.463 177.774C168.471 177.65 168.302 177.436 168.432 176.45C168.49 176.022 168.549 175.587 168.614 175.165Z" fill="#EA5E40"/>
<path d="M207.065 174.788C207.065 175.073 207.059 175.352 207.059 175.638C206.449 175.644 205.853 175.677 205.249 175.651C204.737 175.625 204.296 175.735 203.933 176.112C203.181 175.774 202.701 175.086 202.059 174.606C202.682 173.717 203.512 173.133 204.595 172.965C205.295 172.854 206.002 172.822 206.708 172.751C206.819 173.432 206.942 174.107 207.065 174.788Z" fill="#CE6E43"/>
<path d="M174.13 173.959C174.13 174.672 173.475 175.321 172.755 175.302C172.048 175.289 171.4 174.601 171.432 173.907C171.465 173.232 172.094 172.609 172.768 172.609C173.475 172.596 174.13 173.245 174.13 173.959Z" fill="#E6E7EC"/>
<path d="M61.5649 134.464H35.5758C33.9093 134.464 32.5605 133.114 32.5605 131.447V121.131C32.5605 119.463 33.9093 118.114 35.5758 118.114H61.5649C63.2314 118.114 64.5801 119.463 64.5801 121.131V131.447C64.5736 133.114 63.2249 134.464 61.5649 134.464Z" fill="#239954"/>
<path d="M65.4467 134.561L37.6095 134.47C36.2867 134.464 35.2168 133.393 35.2168 132.07V120.521C35.2168 119.197 36.2932 118.12 37.616 118.12H65.3753C65.9784 118.12 66.5555 118.347 66.9964 118.756L73.2538 124.505C74.2783 125.445 74.2913 127.054 73.2862 128.015L67.1131 133.912C66.6592 134.328 66.0627 134.568 65.4467 134.561Z" fill="#53BE80"/>
<path d="M64.2077 123.084H44.5148C44.2295 123.084 43.9961 122.85 43.9961 122.564V121.955C43.9961 121.669 44.2295 121.436 44.5148 121.436H64.2077C64.493 121.436 64.7264 121.669 64.7264 121.955V122.564C64.7264 122.85 64.493 123.084 64.2077 123.084Z" fill="#A0FEBB"/>
<path d="M64.2085 126.342H44.7166C44.4313 126.342 44.1979 126.108 44.1979 125.823V125.213C44.1979 124.928 44.4313 124.694 44.7166 124.694H64.2085C64.4938 124.694 64.7272 124.928 64.7272 125.213V125.823C64.7272 126.108 64.4938 126.342 64.2085 126.342Z" fill="#A0FEBB"/>
<path d="M36.6445 133.594C40.3941 133.594 43.4336 130.553 43.4336 126.801C43.4336 123.05 40.3941 120.008 36.6445 120.008C32.895 120.008 29.8555 123.05 29.8555 126.801C29.8555 130.553 32.895 133.594 36.6445 133.594Z" fill="#A0FEBB"/>
<path d="M60.8422 157.704H34.8596C33.1931 157.704 31.8444 156.355 31.8444 154.687V144.371C31.8444 142.704 33.1931 141.354 34.8596 141.354H60.8487C62.5152 141.354 63.8639 142.704 63.8639 144.371V154.687C63.8574 156.355 62.5087 157.704 60.8422 157.704Z" fill="#E74C3C"/>
<path d="M64.7273 157.808L36.8901 157.717C35.5673 157.711 34.4974 156.64 34.4974 155.317V143.768C34.4974 142.444 35.5738 141.367 36.8966 141.367H64.656C65.259 141.367 65.8361 141.594 66.2771 142.003L72.5344 147.752C73.559 148.692 73.5719 150.301 72.5669 151.262L66.3938 157.159C65.9464 157.568 65.3498 157.808 64.7273 157.808Z" fill="#EC7062"/>
<path d="M63.599 150.159H43.8996C43.6143 150.159 43.3809 149.925 43.3809 149.64V149.03C43.3809 148.744 43.6143 148.511 43.8996 148.511H63.5925C63.8778 148.511 64.1112 148.744 64.1112 149.03V149.64C64.1112 149.925 63.8843 150.159 63.599 150.159Z" fill="#FDEDEB"/>
<path d="M63.5998 153.417H44.108C43.8227 153.417 43.5892 153.184 43.5892 152.898V152.288C43.5892 152.003 43.8227 151.769 44.108 151.769H63.5998C63.8851 151.769 64.1186 152.003 64.1186 152.288V152.898C64.1121 153.184 63.8851 153.417 63.5998 153.417Z" fill="#FDEDEB"/>
<path d="M35.9317 156.837C39.6812 156.837 42.7207 153.795 42.7207 150.043C42.7207 146.292 39.6812 143.25 35.9317 143.25C32.1822 143.25 29.1426 146.292 29.1426 150.043C29.1426 153.795 32.1822 156.837 35.9317 156.837Z" fill="#FADBD8"/>
<path d="M73.9672 145.65H47.9781C46.3116 145.65 44.9629 144.301 44.9629 142.633V132.317C44.9629 130.65 46.3116 129.3 47.9781 129.3H73.9672C75.6337 129.3 76.9824 130.65 76.9824 132.317V142.633C76.9759 144.301 75.6337 145.65 73.9672 145.65Z" fill="#F39C13"/>
<path d="M77.8523 145.754L50.0151 145.663C48.6923 145.657 47.6224 144.586 47.6224 143.263V131.714C47.6224 130.39 48.6988 129.313 50.0216 129.313H77.781C78.384 129.313 78.9611 129.54 79.4021 129.949L85.6594 135.698C86.684 136.638 86.6969 138.247 85.6919 139.208L79.5188 145.105C79.0714 145.514 78.4748 145.754 77.8523 145.754Z" fill="#F8C370"/>
<path d="M77.2286 138.974H57.5357C57.2504 138.974 57.017 138.74 57.017 138.455V137.845C57.017 137.559 57.2504 137.326 57.5357 137.326H77.2286C77.5139 137.326 77.7473 137.559 77.7473 137.845V138.455C77.7473 138.74 77.5139 138.974 77.2286 138.974Z" fill="#FDEBD0"/>
<path d="M67.7291 135.139H57.5357C57.2504 135.139 57.017 134.906 57.017 134.62V134.01C57.017 133.725 57.2504 133.491 57.5357 133.491H67.7355C68.0208 133.491 68.2543 133.725 68.2543 134.01V134.62C68.2478 134.906 68.0144 135.139 67.7291 135.139Z" fill="#FDEBD0"/>
<path d="M77.2293 142.231H57.7375C57.4522 142.231 57.2188 141.997 57.2188 141.712V141.102C57.2188 140.816 57.4522 140.583 57.7375 140.583H77.2293C77.5146 140.583 77.7481 140.816 77.7481 141.102V141.712C77.7481 141.997 77.5146 142.231 77.2293 142.231Z" fill="#FDEBD0"/>
<path d="M49.0567 144.781C52.8062 144.781 55.8457 141.74 55.8457 137.988C55.8457 134.236 52.8062 131.195 49.0567 131.195C45.3072 131.195 42.2676 134.236 42.2676 137.988C42.2676 141.74 45.3072 144.781 49.0567 144.781Z" fill="#FDEBD0"/>
<path d="M206.709 172.628C206.437 170.24 206.171 167.852 205.885 165.465C205.73 164.147 205.542 162.837 205.373 161.52C205.367 159.139 206.054 158.399 208.434 158.152C209.724 158.016 211.008 157.834 212.298 157.659C213.427 157.503 213.654 157.698 213.796 158.814C214.458 164.225 215.132 169.636 215.806 175.048C215.21 175.528 214.477 175.437 213.783 175.534C212.532 175.709 211.28 175.846 210.029 176.014C208.777 176.183 207.714 175.846 206.929 174.808C206.605 174.1 206.456 173.387 206.709 172.628Z" fill="#006466"/>
<path d="M206.877 174.795C207.759 175.768 208.816 176.041 210.126 175.82C211.941 175.515 213.783 175.379 215.612 175.171C215.624 175.262 215.631 175.359 215.644 175.444C216.052 178 215.884 177.591 213.582 177.935C212.551 178.091 211.507 178.221 210.469 178.312C208.155 178.519 207.35 177.916 206.877 175.638C206.644 175.359 206.65 175.074 206.877 174.795Z" fill="#007766"/>
<path d="M211.326 175.314C210.612 175.288 210.022 174.633 210.048 173.893C210.081 173.167 210.749 172.55 211.449 172.602C212.13 172.654 212.687 173.277 212.674 173.971C212.674 174.705 212.026 175.334 211.326 175.314Z" fill="#E4E9EE"/>
<path d="M140.25 108.531L135.27 135.327C134.972 136.936 136.035 138.481 137.643 138.779L160.579 143.042C162.187 143.34 163.73 142.276 164.028 140.667L170.104 107.96C170.616 105.19 168.794 102.529 166.025 102.017L152.745 99.5448C151.455 99.3047 150.119 99.5773 149.017 100.297L143.123 104.19C141.618 105.19 140.581 106.753 140.25 108.531Z" fill="#F9D7A0"/>
<path d="M143.239 109.089L138.26 135.885C137.961 137.494 138.889 139.013 140.328 139.285L160.877 143.107C162.316 143.373 163.73 142.289 164.028 140.68L170.104 107.973C170.616 105.203 169.028 102.588 166.544 102.127L154.652 99.9017C152.298 99.3567 153.024 100.7 152.019 101.439L145.911 104.709C144.536 105.735 143.57 107.311 143.239 109.089Z" fill="#FDEBD0" stroke="#FDEBD0" stroke-miterlimit="10"/>
<path d="M153.16 125.173C149.756 124.537 146.352 123.908 142.948 123.272C142.818 123.246 142.688 123.227 142.565 123.194C142.247 123.11 142.118 122.876 142.144 122.571C142.17 122.279 142.364 122.098 142.656 122.065C142.792 122.052 142.941 122.072 143.084 122.098C149.97 123.376 156.85 124.654 163.736 125.939C163.918 125.971 164.106 125.997 164.249 126.121C164.443 126.289 164.527 126.503 164.437 126.75C164.346 127.003 164.158 127.165 163.873 127.146C163.73 127.139 163.587 127.107 163.445 127.081C160.014 126.451 156.584 125.816 153.16 125.173Z" fill="#4D6177"/>
<path d="M151.65 126.445C154.632 126.996 157.609 127.554 160.592 128.106C160.721 128.132 160.851 128.151 160.974 128.184C161.279 128.275 161.428 128.489 161.389 128.807C161.344 129.138 161.143 129.319 160.799 129.313C160.643 129.313 160.488 129.28 160.332 129.254C154.373 128.145 148.408 127.035 142.448 125.932C142.384 125.919 142.319 125.913 142.254 125.893C141.813 125.796 141.58 125.517 141.644 125.173C141.709 124.823 142.02 124.654 142.474 124.739C145.535 125.309 148.589 125.88 151.65 126.445Z" fill="#4D6177"/>
<path d="M153.802 133.089C156.552 133.601 159.301 134.114 162.051 134.62C162.18 134.646 162.31 134.665 162.433 134.698C162.738 134.776 162.848 135.003 162.848 135.282C162.848 135.567 162.654 135.73 162.394 135.801C162.213 135.853 162.031 135.814 161.85 135.781C156.312 134.75 150.774 133.718 145.237 132.693C145.185 132.687 145.133 132.674 145.081 132.667C144.608 132.557 144.374 132.284 144.439 131.927C144.504 131.577 144.828 131.428 145.314 131.519C148.148 132.038 150.975 132.563 153.802 133.089Z" fill="#135277"/>
<path d="M150.405 136.865C148.479 136.508 146.553 136.151 144.627 135.788C144.523 135.768 144.42 135.756 144.322 135.73C144.005 135.639 143.817 135.347 143.875 135.048C143.933 134.75 144.212 134.555 144.549 134.581C144.64 134.588 144.731 134.614 144.822 134.627C148.712 135.353 152.603 136.073 156.493 136.8C156.597 136.82 156.701 136.826 156.798 136.865C157.103 136.982 157.265 137.209 157.2 137.533C157.135 137.858 156.902 138.013 156.571 138C156.455 137.994 156.338 137.961 156.221 137.942C154.282 137.585 152.343 137.222 150.405 136.865Z" fill="#135277"/>
<path d="M150.042 130.331C148.615 130.065 147.188 129.799 145.762 129.533C145.645 129.514 145.528 129.501 145.418 129.455C145.139 129.352 144.997 129.138 145.023 128.846C145.049 128.554 145.23 128.378 145.528 128.333C145.678 128.314 145.814 128.339 145.956 128.365C148.822 128.897 151.689 129.429 154.555 129.962C154.619 129.974 154.684 129.981 154.749 130C155.099 130.098 155.313 130.39 155.261 130.688C155.203 131.019 154.905 131.22 154.516 131.149C153.024 130.889 151.533 130.61 150.042 130.331Z" fill="#135277"/>
<path d="M153.64 122.539C152.434 122.312 151.228 122.091 150.022 121.864C149.503 121.767 149.27 121.507 149.348 121.138C149.425 120.774 149.737 120.619 150.217 120.709C152.668 121.164 155.119 121.618 157.57 122.078C158.101 122.176 158.348 122.513 158.186 122.902C158.037 123.253 157.758 123.311 157.408 123.246C156.163 123.006 154.898 122.773 153.64 122.539Z" fill="#4D6177"/>
<path d="M143.479 128.528C143.356 129.176 142.734 129.605 142.092 129.488C141.437 129.371 140.983 128.716 141.1 128.073C141.216 127.457 141.891 126.996 142.507 127.1C143.155 127.217 143.603 127.872 143.479 128.528Z" fill="#F5B041"/>
<path d="M142.319 134.776C142.195 135.412 141.56 135.846 140.918 135.73C140.276 135.613 139.809 134.938 139.939 134.302C140.069 133.679 140.73 133.232 141.353 133.342C142.007 133.465 142.448 134.12 142.319 134.776Z" fill="#F5B041"/>
<path d="M141.93 130.241C142.611 130.364 143.032 130.974 142.902 131.648C142.779 132.297 142.17 132.719 141.515 132.609C140.866 132.498 140.406 131.837 140.529 131.194C140.646 130.565 141.288 130.13 141.93 130.241Z" fill="#F5B041"/>
<path d="M155.618 119.58C159.844 119.58 163.27 116.153 163.27 111.924C163.27 107.696 159.844 104.268 155.618 104.268C151.392 104.268 147.967 107.696 147.967 111.924C147.967 116.153 151.392 119.58 155.618 119.58Z" fill="#F19588"/>
<path d="M153.413 99.6746L151.98 107.37C151.766 108.531 150.651 109.297 149.49 109.076L141.184 107.538L153.413 99.6746Z" fill="#F9D7A0"/>
<path d="M148.9 117.452C148.9 117.452 152.285 119.47 159.988 119.516C159.988 119.516 161.026 116.765 158.458 115.941L156.772 115.629C156.772 115.629 155.08 116.356 153.219 115.006L151.546 114.695C151.552 114.688 149.179 114.208 148.9 117.452Z" fill="#1F618D"/>
<path d="M152.369 110.484L152 112.469L158.795 113.735L159.191 111.619L152.369 110.484Z" fill="#BF8217"/>
<path d="M157.135 104.852C157.349 104.949 157.583 105.014 157.797 105.112C158.328 105.358 158.821 105.67 159.269 106.04C159.82 106.494 160.027 107.11 160.04 107.804C160.053 108.46 159.891 109.082 159.703 109.705C159.69 109.751 159.677 109.796 159.664 109.842C159.606 110.056 159.606 110.056 159.398 110.03C159.295 110.088 159.184 110.121 159.087 110.198C159.035 110.237 158.97 110.283 158.906 110.231C158.854 110.185 158.873 110.114 158.893 110.056C159.003 109.679 159.022 109.297 159.009 108.907C158.996 108.505 158.931 108.109 158.763 107.739C158.666 107.532 158.653 107.525 158.432 107.564C158.037 107.629 157.641 107.629 157.246 107.597C156.779 107.564 156.318 107.467 155.864 107.363C155.365 107.253 154.872 107.097 154.412 106.857C154.295 106.792 154.217 106.812 154.12 106.889C153.874 107.104 153.686 107.357 153.543 107.655C153.374 107.999 153.258 108.362 153.16 108.732C153.122 108.862 153.089 108.998 153.037 109.121C152.992 109.238 152.94 109.245 152.869 109.147C152.791 109.044 152.7 108.959 152.577 108.914C152.531 108.901 152.486 108.875 152.525 108.81C152.557 108.427 152.564 108.038 152.616 107.655C152.668 107.246 152.752 106.844 152.901 106.461C153.089 105.981 153.394 105.618 153.861 105.378C154.645 104.962 155.462 104.677 156.37 104.742C156.377 104.742 156.39 104.729 156.403 104.722C156.649 104.761 156.895 104.807 157.135 104.852Z" fill="#BF8217"/>
<path d="M152.531 108.81C152.538 108.829 152.531 108.862 152.564 108.868C152.758 108.901 152.869 109.037 152.966 109.219C153.076 108.953 153.128 108.693 153.206 108.44C153.323 108.057 153.459 107.688 153.673 107.35C153.815 107.13 153.984 106.935 154.198 106.786C154.243 106.753 154.276 106.727 154.334 106.766C154.801 107.039 155.313 107.188 155.826 107.318C156.558 107.499 157.304 107.623 158.069 107.571C158.225 107.558 158.38 107.545 158.529 107.506C158.64 107.473 158.692 107.512 158.737 107.603C158.944 107.979 159.016 108.395 159.042 108.816C159.074 109.297 159.029 109.77 158.893 110.237C158.996 110.244 159.055 110.179 159.126 110.134C159.204 110.075 159.288 110.01 159.392 110.043C159.489 110.108 159.593 110.153 159.671 110.25C159.878 110.51 159.865 110.782 159.69 111.094C159.502 111.431 159.223 111.684 158.867 111.84C158.73 111.898 158.743 112.041 158.724 112.138C158.62 112.606 158.315 112.917 157.952 113.202C157.68 113.417 157.427 113.644 157.116 113.806C157.058 113.838 157.058 113.897 157.045 113.955C156.947 114.468 156.857 114.987 156.753 115.499C156.707 115.733 156.63 115.817 156.396 115.856C156.098 115.908 155.8 115.889 155.495 115.869C155.171 115.843 154.859 115.778 154.548 115.713C154.185 115.636 153.822 115.538 153.491 115.37C153.18 115.214 153.128 115.097 153.193 114.786C153.297 114.305 153.374 113.819 153.465 113.339C153.478 113.267 153.478 113.202 153.426 113.144C153.102 112.761 152.875 112.327 152.642 111.885C152.467 111.554 152.473 111.204 152.512 110.854C152.525 110.75 152.499 110.685 152.434 110.607C152.091 110.218 151.89 109.783 152 109.251C152.071 109.024 152.311 108.823 152.531 108.81Z" fill="#F6DBC0"/>
<path d="M153.653 113.423C154.101 113.884 154.574 114.286 155.248 114.364C155.91 114.442 156.467 114.169 157.045 113.858C156.986 114.169 156.934 114.461 156.876 114.747C156.863 114.805 156.818 114.831 156.772 114.85C156.396 115.032 156.001 115.117 155.573 115.084C154.905 115.032 154.412 114.701 154.036 114.163C153.874 113.936 153.738 113.696 153.653 113.423Z" fill="#E1B590"/>
<path d="M47.8222 148.473C53.4661 148.473 58.0415 143.895 58.0415 138.248C58.0415 132.601 53.4661 128.022 47.8222 128.022C42.1782 128.022 37.6029 132.601 37.6029 138.248C37.6029 143.895 42.1782 148.473 47.8222 148.473Z" fill="#F19588"/>
<path d="M41.3648 145.975C41.3648 145.975 45.8001 147.61 54.904 145.975C54.904 145.975 55.5201 142.497 52.3103 142.088H50.2548C50.2548 142.088 48.4197 143.314 45.9233 142.134H43.8807C43.8872 142.14 40.9822 142.088 41.3648 145.975Z" fill="#1F618D"/>
<path d="M43.931 136.995V139.415H52.231V136.833L43.931 136.995Z" fill="#240703"/>
<path d="M48.3228 129.3C48.5952 129.371 48.8805 129.391 49.1593 129.462C49.8402 129.638 50.4886 129.897 51.1046 130.234C51.8568 130.643 52.2329 131.331 52.4015 132.148C52.5636 132.914 52.5117 133.693 52.4209 134.465C52.4144 134.523 52.408 134.575 52.4015 134.633C52.382 134.899 52.382 134.899 52.1291 134.912C52.0189 135.003 51.8957 135.068 51.7984 135.178C51.7466 135.237 51.6752 135.302 51.5909 135.256C51.5196 135.217 51.5261 135.127 51.5391 135.055C51.5844 134.588 51.5196 134.127 51.4223 133.68C51.3186 133.206 51.1565 132.752 50.8777 132.35C50.722 132.122 50.6961 132.122 50.4497 132.213C50.0023 132.376 49.5354 132.46 49.0556 132.512C48.4979 132.577 47.9338 132.557 47.3761 132.538C46.7601 132.518 46.1441 132.447 45.554 132.259C45.4049 132.213 45.3076 132.246 45.2168 132.363C44.9704 132.668 44.8083 133.011 44.7046 133.388C44.5814 133.835 44.523 134.29 44.4906 134.744C44.4776 134.906 44.4647 135.075 44.4322 135.23C44.3998 135.38 44.348 135.399 44.2377 135.295C44.121 135.185 43.9978 135.107 43.8422 135.088C43.7903 135.081 43.7255 135.062 43.7579 134.977C43.7125 134.517 43.6347 134.056 43.6087 133.595C43.5828 133.102 43.5893 132.609 43.6866 132.122C43.8033 131.513 44.0886 131.02 44.5814 130.63C45.4179 129.962 46.3192 129.449 47.4085 129.326C47.4215 129.326 47.428 129.307 47.441 129.3C47.7328 129.3 48.031 129.3 48.3228 129.3Z" fill="#240703"/>
<path d="M43.7573 134.977C43.7703 135.003 43.7703 135.042 43.8027 135.042C44.0426 135.042 44.2047 135.178 44.3603 135.366C44.4317 135.029 44.4381 134.711 44.4706 134.393C44.5224 133.92 44.6003 133.452 44.7818 133.005C44.8985 132.713 45.0606 132.447 45.2811 132.22C45.3265 132.174 45.3589 132.135 45.4367 132.168C46.0463 132.388 46.6817 132.453 47.3172 132.486C48.225 132.538 49.1263 132.525 50.0211 132.291C50.2027 132.246 50.3843 132.194 50.5529 132.109C50.6825 132.051 50.7474 132.083 50.8187 132.174C51.1429 132.577 51.318 133.044 51.4477 133.537C51.5904 134.095 51.6357 134.666 51.5839 135.25C51.7136 135.23 51.7654 135.146 51.8303 135.075C51.9146 134.99 51.9924 134.893 52.1286 134.912C52.2582 134.971 52.3944 134.997 52.5046 135.094C52.8094 135.354 52.8483 135.678 52.7121 136.087C52.563 136.528 52.2907 136.885 51.9081 137.151C51.7589 137.255 51.8108 137.417 51.8043 137.534C51.7849 138.111 51.4931 138.546 51.13 138.954C50.8576 139.266 50.6047 139.59 50.274 139.85C50.2092 139.902 50.2286 139.973 50.2286 140.038C50.2286 140.667 50.2286 141.297 50.2286 141.926C50.2286 142.212 50.1508 142.328 49.885 142.426C49.5413 142.549 49.1847 142.601 48.828 142.64C48.4455 142.685 48.0564 142.672 47.6738 142.666C47.2264 142.659 46.779 142.62 46.351 142.491C45.949 142.374 45.8582 142.25 45.8712 141.868C45.8842 141.277 45.8712 140.693 45.8777 140.103C45.8777 140.012 45.8582 139.941 45.7869 139.876C45.32 139.499 44.9569 139.032 44.5873 138.565C44.3085 138.215 44.2371 137.8 44.2112 137.371C44.2047 137.242 44.1593 137.17 44.0621 137.099C43.5757 136.716 43.2385 136.242 43.258 135.594C43.258 135.334 43.4979 135.042 43.7573 134.977Z" fill="#F6DBC0"/>
<path d="M46.0924 140.18C46.7214 140.628 47.3698 140.991 48.1804 140.939C48.9779 140.881 49.5745 140.439 50.1905 139.946C50.1905 140.329 50.1905 140.686 50.1905 141.036C50.1905 141.108 50.1386 141.147 50.0867 141.186C49.6782 141.484 49.2308 141.672 48.7186 141.724C47.9145 141.808 47.2661 141.523 46.7019 140.971C46.4685 140.731 46.2545 140.478 46.0924 140.18Z" fill="#E1B590"/>
<path d="M136.1 240.365L151.065 237.887C151.065 237.887 152.2 237.673 151.065 233.034C149.931 228.395 144.873 220.129 144.873 220.129L133.039 220.206L136.1 240.365Z" fill="#F8C370" stroke="#F8C370" stroke-miterlimit="10"/>
<path d="M116.084 219.92L99.6791 229.211C99.6791 229.211 98.7519 230.444 104.529 233.026C110.307 235.609 130.22 242.94 130.22 242.94C130.22 242.94 137.963 245.626 138.371 239.638C138.786 233.649 140.952 223.015 140.952 223.015C140.952 223.015 140.848 221.464 137.548 220.744C134.247 220.024 119.696 219.401 119.696 219.401H117.693C117.115 219.401 116.551 219.583 116.084 219.92Z" fill="#F9D7A0" stroke="#F9D7A0" stroke-miterlimit="10"/>
<path d="M106.799 228.388L110.411 226.24C110.411 226.24 116.091 228.907 116.914 229.322C117.738 229.737 116.396 232.216 114.749 232.521C113.095 232.832 108.07 230.172 106.436 229.381C105.658 229.004 106.799 228.388 106.799 228.388Z" fill="#F5B041" stroke="#F5B041" stroke-miterlimit="10"/>
<path d="M114.396 225.462C114.396 225.462 129.259 232.969 135.84 232.956" stroke="#F5B041" stroke-width="4" stroke-miterlimit="10"/>
<path d="M115.715 223.859C115.715 223.859 126.304 229.231 130.998 229.225" stroke="#F5B041" stroke-width="4" stroke-miterlimit="10"/>
<path d="M117.128 221.938C117.128 221.938 124.377 225.617 127.593 225.611" stroke="#F5B041" stroke-width="4" stroke-miterlimit="10"/>
<path d="M149.698 222.438C149.906 222.671 149.88 223.035 149.64 223.236C147.844 224.722 140.257 229.737 125.006 224.105C123.826 223.671 122.892 222.769 122.451 221.633C121.511 219.194 120.37 215.087 123.223 214.73C127.308 214.217 143.214 215.216 143.214 215.216L149.698 222.438Z" fill="#943126" stroke="#943126" stroke-miterlimit="10"/>
<path d="M133.734 174.581C133.747 174.276 131.944 173.549 131.73 173.329C130.414 171.959 124.597 165.569 125.842 162.182C126.88 159.359 128.028 153.883 124.993 153.767C123.21 153.702 122.354 155.077 121.952 156.226C121.705 156.933 120.856 157.205 120.24 156.777C117.867 155.116 113.049 151.723 111.026 150.075C108.633 148.128 106.286 153.728 105.734 155.155C105.657 155.363 105.637 155.59 105.689 155.804C106.266 158.36 110.254 174.756 116.576 170.208C122.613 165.867 121.342 171.596 120.96 173.011C120.908 173.205 120.804 173.38 120.661 173.523L117.445 176.67C117.251 176.858 117.134 177.111 117.108 177.377C117.089 177.591 117.14 177.805 117.238 177.994L117.938 179.35C118.541 180.517 119.514 181.458 120.713 181.984C121.089 182.152 122.516 182.152 122.691 182.152C125.544 182.12 128.352 180.115 129.714 178.681C130.07 178.305 133.649 176.832 133.734 174.581Z" fill="#F9B890"/>
<path d="M126.595 166.477C127.23 167.191 127.237 168.32 127.483 167.567C128.832 163.356 133.701 147.084 125.382 142.25C116.096 136.852 112.679 136.268 103.296 142.315C102.324 142.938 101.662 143.95 101.487 145.092C100.982 148.394 100.411 155.252 104.01 156.952C106.072 157.926 106.973 157.478 107.33 156.654C108.095 154.896 110.021 153.955 111.895 154.376C114.475 154.947 117.296 156.115 117.899 158.464C118.191 159.619 118.658 159.943 119.189 159.781C121.336 159.145 123.592 160.255 124.28 162.383C124.831 164.096 125.726 165.504 126.595 166.477Z" fill="#240703"/>
<path d="M145.062 177.027C145.062 177.027 132.417 170.013 127.541 172.388C122.665 174.762 125.46 176.112 121.433 175.379C117.406 174.639 114.968 173.4 112.809 177.027C110.65 180.654 107.706 186.792 107.706 186.792L113.6 216.598L148.382 220.654L145.062 177.027Z" fill="#9C640D" stroke="#9C640D" stroke-miterlimit="10"/>
<path d="M148.369 220.653C148.369 220.653 142.682 227.875 125.006 221.341C123.826 220.907 122.892 220.005 122.451 218.869C121.511 216.43 120.37 212.323 123.223 211.966C127.308 211.453 143.214 212.452 143.214 212.452L148.369 220.653Z" fill="#EC7062" stroke="#EC7062" stroke-miterlimit="10"/>
<path d="M148.375 220.653C148.375 220.653 146.657 217.552 144.459 214.84C142.857 212.868 141.003 211.096 139.369 210.889C135.491 210.389 147.999 203.375 138.493 183.093C138.493 183.093 135.984 169.15 147.312 178.753C158.64 188.355 168.211 205.445 148.375 220.653Z" fill="#7E510A" stroke="#7E510A" stroke-miterlimit="10"/>
<path d="M144.498 215.022C144.498 215.022 140.432 211.577 139.557 218.843C138.954 223.859 137.248 222.866 136.113 222.412C134.862 221.912 133.987 220.66 133.234 222.159C132.768 223.093 131.257 222.327 130.608 221.283C129.357 219.278 126.977 223.911 127.606 215.774C127.606 215.774 127.483 211.641 124.669 216.216C120.96 222.23 120.162 213.977 121.79 212.654C123.411 211.33 134.026 201.552 144.498 215.022Z" fill="#F9B890"/>
<path d="M108.023 185.909C108.023 185.909 120.039 213.828 114.281 216.332C108.523 218.837 99.4317 216.332 99.4317 216.332L95.2623 213.705C95.2623 213.705 99.7689 211.077 101.02 206.444C102.265 201.812 108.023 185.909 108.023 185.909Z" fill="#7E510A" stroke="#7E510A" stroke-miterlimit="10"/>
<path d="M72.6309 187.896H60.8813C60.8813 187.896 54.5137 187.493 56.5952 195.513C58.8712 204.259 60.5895 212.869 65.0767 214.29C69.5638 215.711 95.2871 222.646 105.065 221.264L98.6395 206.543L91.5262 190.601C91.4743 190.484 90.0024 189.401 89.8857 189.355L87.3762 188.733C87.3762 188.726 78.8494 187.876 72.6309 187.896Z" fill="#EC7062"/>
<path d="M103.496 215.847C103.496 215.847 119.558 216.632 119.979 217.384C120.401 218.131 112.062 219.655 112.062 219.655C112.062 219.655 105.565 220.784 104.877 219.156C104.19 217.527 103.328 215.853 103.328 215.853H103.496V215.847Z" fill="#F9D7A0"/>
<path d="M118.456 217.469C118.456 217.469 120.809 216.502 120.141 218.423C119.474 220.343 107.108 227.337 102.958 218.423L91.8764 192.45C91.8764 192.45 90.2942 189.226 87.895 188.927C84.5167 188.512 92.1552 187.72 94.3793 192.82C96.6034 197.913 103.82 216.236 103.82 216.236C103.82 216.236 104.728 221.446 113.826 218.857C117.574 217.793 118.456 217.469 118.456 217.469Z" fill="#B03A2E"/>
<path d="M62.7553 212.791C62.7553 212.791 64.0521 218.163 76.1843 219.831C88.3164 221.498 89.5679 223.399 100.215 223.957C110.862 224.515 116.329 222.569 116.329 222.569C116.329 222.569 120.07 221.42 120.148 218.423C120.148 218.423 109.851 222.29 97.5306 220.804C85.2104 219.318 62.431 214.874 62.7553 212.791Z" fill="#943126"/>
<path d="M59.2214 196.57C58.975 196.11 58.774 195.617 58.5989 195.123C58.2811 194.209 58.0218 193.196 58.1515 192.223C58.3071 191.081 59.1241 190.42 60.2264 190.225C61.2185 190.05 62.2755 190.128 63.2741 190.121C64.0846 190.115 64.8887 190.108 65.6992 190.115C66.3087 190.121 66.9183 190.115 67.5278 190.153C67.7807 190.173 67.7742 189.784 67.5278 189.764C66.9961 189.732 66.4643 189.732 65.9326 189.725C65.148 189.719 64.3569 189.719 63.5723 189.725C62.5089 189.732 61.4066 189.673 60.3496 189.81C59.1954 189.965 58.1774 190.575 57.8532 191.75C57.5808 192.755 57.7883 193.858 58.0931 194.831C58.3006 195.493 58.56 196.155 58.8842 196.771C59.0009 196.986 59.3381 196.791 59.2214 196.57Z" fill="#943126"/>
<path d="M91.4159 198.789C90.8583 196.901 90.0931 195 89.0621 193.326C88.4915 192.398 87.7328 191.328 86.6564 190.965C86.3257 190.854 85.9756 190.854 85.6319 190.835C85.0742 190.802 84.5101 190.776 83.9525 190.75C83.1289 190.711 82.3054 190.673 81.4819 190.64C80.8465 190.614 80.2045 190.588 79.5691 190.588C79.3162 190.588 79.3162 190.977 79.5691 190.977C80.0294 190.977 80.4898 190.997 80.9437 191.01C82.6751 191.068 84.4193 191.101 86.1442 191.25C87.2141 191.341 87.9987 192.385 88.5369 193.216C89.2566 194.306 89.8013 195.506 90.2812 196.72C90.56 197.433 90.8258 198.16 91.0463 198.893C91.1111 199.133 91.4872 199.036 91.4159 198.789Z" fill="#943126"/>
<path d="M94.6711 209.968C95.0407 210.507 95.3779 211.078 95.6891 211.649C96.2662 212.694 96.8109 213.803 97.0832 214.977C97.2842 215.853 97.3426 217.034 96.3246 217.404C95.5854 217.67 94.7618 217.508 94.0161 217.384C92.823 217.196 91.6364 217.015 90.4433 216.839C89.4382 216.697 88.4396 216.548 87.4281 216.437C87.1817 216.411 87.1817 216.801 87.4281 216.827C88.31 216.924 89.1918 217.054 90.0672 217.177C91.2668 217.352 92.4729 217.534 93.6725 217.722C94.509 217.852 95.3973 218.053 96.2403 217.839C98.8664 217.17 97.0638 213.427 96.3116 211.973C95.9225 211.221 95.4881 210.475 95.0082 209.774C94.8656 209.566 94.5284 209.761 94.6711 209.968Z" fill="#943126"/>
<path opacity="0.27" d="M50.648 141.524C51.4759 138.001 49.287 134.472 45.7589 133.642C42.2307 132.811 38.6995 134.995 37.8715 138.518C37.0436 142.041 39.2325 145.57 42.7607 146.4C46.2888 147.231 49.8201 145.047 50.648 141.524Z" fill="#E9F2F7"/>
<path opacity="0.27" d="M55.8036 135.68C56.1282 134.299 55.2694 132.915 53.8853 132.589C52.5013 132.263 51.1161 133.119 50.7915 134.501C50.4669 135.882 51.3257 137.266 52.7098 137.592C54.0938 137.917 55.479 137.061 55.8036 135.68Z" fill="#E9F2F7"/>
<path opacity="0.27" d="M56.5109 139.697C56.674 139.003 56.2438 138.308 55.55 138.145C54.8563 137.981 54.1616 138.412 53.9985 139.106C53.8354 139.8 54.2655 140.495 54.9593 140.658C55.6531 140.822 56.3477 140.391 56.5109 139.697Z" fill="#E9F2F7"/>
<path d="M38.212 146.099L25.9242 159.036C25.9242 159.036 25.2239 162.851 29.2507 161.807L40.5269 148.292L40.5917 148.006L38.4778 146.164L38.212 146.099Z" fill="#154361" stroke="#154361" stroke-miterlimit="10"/>
<path d="M38.5892 144.696L41.7341 147.823C41.7341 147.823 40.9235 148.725 39.9768 148.108C39.9768 148.108 36.7022 145.941 38.5892 144.696Z" fill="#1F618D" stroke="#1F618D" stroke-miterlimit="10"/>
<path d="M50.3986 127.38C56.455 128.807 60.2094 134.873 58.7893 140.933C57.3692 146.993 51.2999 150.757 45.2436 149.329C39.1872 147.902 35.4263 141.835 36.8529 135.775C38.2729 129.715 44.3423 125.959 50.3986 127.38ZM57.5573 140.648C58.8217 135.269 55.5407 129.891 50.2235 128.645C44.9064 127.399 39.5763 130.74 38.3118 136.126C37.0474 141.504 40.3285 146.883 45.6456 148.129C50.9627 149.375 56.2928 146.027 57.5573 140.648Z" fill="#154361"/>
<path d="M47.8178 149.628C54.0383 149.628 59.0811 144.582 59.0811 138.358C59.0811 132.133 54.0383 127.088 47.8178 127.088C41.5973 127.088 36.5546 132.133 36.5546 138.358C36.5546 144.582 41.5973 149.628 47.8178 149.628Z" stroke="#154361" stroke-miterlimit="10"/>
<path d="M57.5598 140.647C58.8238 135.268 55.5414 129.894 50.2283 128.644C44.9152 127.394 39.5834 130.741 38.3194 136.12C37.0553 141.499 40.3378 146.873 45.6509 148.123C50.964 149.373 56.2958 146.026 57.5598 140.647Z" stroke="#154361" stroke-miterlimit="10"/>
<path d="M149.537 121.657L143.208 142.413C142.981 143.153 142.32 143.672 141.548 143.71C140.673 143.756 139.836 143.334 139.343 142.601C137.307 139.545 134.383 132.681 132.282 132.674C130.116 132.668 129.805 127.503 134.253 131.519C138.435 135.295 139.214 138.864 140.121 138.968C141.029 139.071 142.261 137.105 145.004 128.574C147.734 120.1 149.537 121.657 149.537 121.657Z" fill="#26AE60" stroke="#26AE60" stroke-miterlimit="10"/>
</g>
<defs>
<clipPath id="clip0_19_532">
<rect width="250" height="250" fill="white" transform="translate(0.5)"/>
</clipPath>
</defs>
</svg>
