<svg width="128" height="115" viewBox="0 0 128 115" fill="none" xmlns="http://www.w3.org/2000/svg">
<ellipse cx="63.9978" cy="57.5" rx="64" ry="57.5" fill="#F4F4F4"/>
<g clip-path="url(#clip0_14_4174)">
<path d="M103.386 21.8719C105.236 23.2515 104.988 24.9224 104.254 26.6875C99.8288 37.3553 95.4227 48.0317 91.007 58.6996C87.8216 66.4027 84.6266 74.0973 81.4317 81.7918C80.5161 84.0025 79.0569 85.0736 77.0827 85.005C75.0608 84.945 73.7352 83.8568 72.9436 81.5776C70.3018 74.0373 67.6791 66.497 65.0373 58.9566C64.8274 58.3654 64.5795 57.7827 64.3506 57.2001C64.4555 56.2918 65.1803 55.7263 65.8384 55.1522C74.2406 47.8261 82.1469 40.063 90.492 32.694C94.2878 29.3437 97.8737 25.7878 101.965 22.6945C102.404 22.3689 102.738 21.9062 103.386 21.8719Z" fill="#0078AD"/>
<path d="M103.386 21.872C100.153 24.7082 96.8914 27.5015 93.706 30.3805C84.4454 38.7691 75.2134 47.192 65.9719 55.6063C65.4092 56.1205 64.8847 56.6688 64.3411 57.2087C57.4361 55.2379 50.5408 53.2671 43.6359 51.2964C41.4232 50.6709 39.2106 50.0539 36.998 49.4284C34.6328 48.7515 33.4025 47.5091 33.3453 45.7439C33.288 44.0045 34.4611 42.6764 36.7882 41.8967C55.872 35.5217 74.9368 29.1638 94.0112 22.8059C95.6993 22.2404 97.3683 21.6578 99.0754 21.1351C100.64 20.6552 102.146 20.6809 103.386 21.872Z" fill="#005266"/>
<path d="M60.7362 61.5272C60.6027 62.3755 59.9732 62.8553 59.401 63.3609C50.0832 71.7238 40.7749 80.0953 31.4571 88.4582C30.8849 88.9723 30.3127 89.495 29.7309 90.0005C29.1396 90.5146 28.5006 90.5746 27.8807 90.0605C27.2035 89.5035 27.2035 88.8866 27.833 88.2868C28.0714 88.0554 28.3194 87.8412 28.5674 87.6184C38.2094 78.9556 47.8515 70.3014 57.4936 61.6386C57.9418 61.2359 58.3519 60.7817 58.9814 60.5761C60.0305 60.2334 60.412 60.8589 60.7362 61.5272Z" fill="#A9CCE3"/>
<path d="M24.5616 77.876C23.5698 77.8674 22.864 76.882 23.3599 76.0937C23.5793 75.7424 23.9608 75.4597 24.2851 75.1683C30.694 69.4103 37.103 63.6522 43.512 57.9027C43.8362 57.6114 44.17 57.3029 44.5325 57.0544C45.1524 56.626 45.8009 56.5403 46.3922 57.1058C46.9263 57.6199 46.8214 58.1512 46.4017 58.6653C46.1633 58.9566 45.8772 59.2223 45.5911 59.4793C39.0963 65.3059 32.611 71.1411 26.1162 76.9592C25.6775 77.3533 25.3055 77.8846 24.5616 77.876Z" fill="#A9CCE3"/>
<path d="M42.7584 94.1562C42.1576 94.1819 41.757 93.8906 41.4804 93.4707C41.2229 93.0852 41.2134 92.6567 41.5377 92.2969C41.8238 91.9712 42.1576 91.6799 42.4914 91.38C48.8527 85.6648 55.2235 79.941 61.5943 74.2258C62.0044 73.8573 62.4431 73.5232 62.9009 73.2061C63.4445 72.8377 64.0072 72.9319 64.465 73.3432C64.9323 73.7545 65.0563 74.2515 64.6367 74.7485C64.3315 75.1255 63.9977 75.4854 63.6257 75.8195C57.1786 81.6204 50.7315 87.4128 44.2748 93.1965C43.8457 93.5907 43.4833 94.1134 42.7584 94.1562Z" fill="#A9CCE3"/>
</g>
<defs>
<clipPath id="clip0_14_4174">
<rect width="81.6" height="73.3125" fill="white" transform="translate(23.1978 20.8438)"/>
</clipPath>
</defs>
</svg>
